# xmcd
#
# Track frame offsets: 
#        150
#        14309
#        28734
#        47285
#        59956
#        72755
#        84121
#        97725
#        113556
#        124888
#
# Disc length: 1889 seconds
#
# Revision: 0
# Processed by: cddbd v1.5.2PL0 Copyright (c) Steve Scherf et al.
# Submitted via: ExactAudioCopy v0.99pb5
#
DISCID=75075f0a
DTITLE=Juke Hounds - Jukehounds
DYEAR=2007
DGENRE=Blues
TTITLE0=I'm Evil
TTITLE1=Everyday Man
TTITLE2=Love, Love, Love
TTITLE3=Talk To Me Baby
TTITLE4=Checkin' On My Baby
TTITLE5=Built For Comfort
TTITLE6=Sugar Coated Love
TTITLE7=Stop Breakin' Down
TTITLE8=You're Gonna Miss Me
TTITLE9=Just Rode In Your Town
EXTD=
EXTT0=
EXTT1=
EXTT2=
EXTT3=
EXTT4=
EXTT5=
EXTT6=
EXTT7=
EXTT8=
EXTT9=
PLAYORDER=
